<svg width="28" height="62" viewBox="0 0 28 62" fill="none" xmlns="http://www.w3.org/2000/svg">
<path d="M20 0H8V7H20V0Z" fill="url(#paint0_linear)"/>
<path d="M20 5H8V7H20V5Z" fill="#C7CDD8"/>
<path d="M28 38V60C28 60.5304 27.7893 61.0391 27.4142 61.4142C27.0391 61.7893 26.5304 62 26 62H2C1.46957 62 0.96086 61.7893 0.585787 61.4142C0.210714 61.0391 0 60.5304 0 60V38C0 34 2.5 32.5 2.5 30.5C2.5 28.5 1 28 1 22C1 14 9 10 9 10V7H19V10C19 10 27 14 27 22C27 28 25.5 28.5 25.5 30.5C25.5 32.5 28 34 28 38Z" fill="url(#paint1_linear)"/>
<path d="M28 57V60C28 60.5304 27.7893 61.0391 27.4142 61.4142C27.0391 61.7893 26.5304 62 26 62H2C1.46957 62 0.96086 61.7893 0.585787 61.4142C0.210714 61.0391 0 60.5304 0 60V57C0 57.5304 0.210714 58.0391 0.585787 58.4142C0.96086 58.7893 1.46957 59 2 59H26C26.5304 59 27.0391 58.7893 27.4142 58.4142C27.7893 58.0391 28 57.5304 28 57Z" fill="#77CACB"/>
<path d="M24.2499 41.71L22.2499 38.33L23.7799 37.45C23.9538 37.3522 24.0946 37.2046 24.184 37.0262C24.2734 36.8478 24.3073 36.6468 24.2815 36.4489C24.2557 36.251 24.1713 36.0654 24.0391 35.9159C23.907 35.7664 23.7331 35.6599 23.5399 35.61L19.7499 34.61C19.6218 34.5754 19.4882 34.5667 19.3567 34.5843C19.2252 34.6019 19.0986 34.6454 18.9841 34.7124C18.8697 34.7794 18.7697 34.8685 18.69 34.9746C18.6103 35.0806 18.5524 35.2014 18.5199 35.33C17.5199 39.26 17.1699 39.62 17.8699 40.15C18.5699 40.68 18.8699 40.27 20.5099 39.34L22.5099 42.73C22.5946 42.8806 22.6388 43.0505 22.6383 43.2233C22.6378 43.396 22.5925 43.5657 22.5069 43.7157C22.4213 43.8658 22.2983 43.9911 22.1498 44.0795C22.0014 44.1679 21.8326 44.2163 21.6599 44.22H18.1399C17.8747 44.22 17.6203 44.3253 17.4328 44.5129C17.2452 44.7004 17.1399 44.9548 17.1399 45.22C17.1399 45.4852 17.2452 45.7396 17.4328 45.9271C17.6203 46.1146 17.8747 46.22 18.1399 46.22C21.2699 46.22 23.1399 46.55 24.2299 44.65C24.4853 44.2029 24.6212 43.6975 24.6247 43.1826C24.6282 42.6677 24.4992 42.1606 24.2499 41.71Z" fill="#4DA67F"/>
<path d="M14.7001 44.5599C11.8101 41.6599 11.7001 41.2399 10.8501 41.5599C10.0001 41.8799 10.2301 42.3899 10.2301 44.2499C6.1201 44.2499 5.8701 44.4199 5.4801 43.7599C5.0901 43.0999 5.3801 42.9299 7.2501 39.6499C7.38271 39.4192 7.41823 39.1452 7.34884 38.8883C7.27945 38.6314 7.11084 38.4125 6.8801 38.2799C6.64936 38.1473 6.3754 38.1118 6.11847 38.1812C5.86155 38.2506 5.64271 38.4192 5.5101 38.6499C3.9401 41.4199 2.6501 42.8499 3.7601 44.7499C4.02398 45.2029 4.40197 45.5789 4.8564 45.8403C5.31083 46.1018 5.82584 46.2395 6.3501 46.2399H10.2301C10.2301 48.1699 10.1001 48.6299 10.8501 48.9399C11.0332 49.0153 11.2345 49.0346 11.4285 48.9954C11.6225 48.9562 11.8006 48.8604 11.9401 48.7199L14.7101 45.9999C14.8062 45.906 14.8824 45.7936 14.9342 45.6695C14.9859 45.5455 15.0121 45.4122 15.0111 45.2778C15.0102 45.1434 14.9822 45.0105 14.9287 44.8872C14.8753 44.7638 14.7975 44.6525 14.7001 44.5599Z" fill="#4DA67F"/>
<path d="M18.3301 31.46C16.7901 28.79 16.1901 27 14.0001 27C13.4731 26.9997 12.9554 27.1381 12.499 27.4014C12.0426 27.6648 11.6635 28.0437 11.4001 28.5L9.48007 31.8L7.94007 30.91C7.77175 30.8171 7.58021 30.7747 7.38839 30.7878C7.19657 30.801 7.01261 30.8691 6.85854 30.9841C6.70448 31.0992 6.58684 31.2562 6.51971 31.4363C6.45259 31.6165 6.43882 31.8122 6.48007 32C7.48007 35.79 7.48007 36.11 7.96007 36.39C8.19236 36.516 8.46308 36.5517 8.72007 36.49C12.7201 35.43 13.1201 35.49 13.2301 34.64C13.3401 33.79 12.8301 33.64 11.2301 32.76C13.2301 29.23 13.2301 28.92 14.0201 28.92C14.8101 28.92 14.9101 29.46 16.6201 32.42C16.7706 32.5954 16.9772 32.7132 17.2048 32.7535C17.4324 32.7937 17.6669 32.7539 17.8685 32.6407C18.07 32.5276 18.2261 32.3481 18.3103 32.1329C18.3944 31.9176 18.4014 31.6798 18.3301 31.46Z" fill="#4DA67F"/>
<path d="M19 7H9V9H19V7Z" fill="#AAE0E5"/>
<defs>
<linearGradient id="paint0_linear" x1="14" y1="7" x2="14" y2="0" gradientUnits="userSpaceOnUse">
<stop stop-color="#D4D8E1"/>
<stop offset="1" stop-color="#F3F4F5"/>
</linearGradient>
<linearGradient id="paint1_linear" x1="14" y1="62" x2="14" y2="7" gradientUnits="userSpaceOnUse">
<stop stop-color="#9DD5DF"/>
<stop offset="1" stop-color="#C3E1F5"/>
</linearGradient>
</defs>
</svg>
