<svg width="43" height="63" viewBox="0 0 43 63" fill="none" xmlns="http://www.w3.org/2000/svg">
<path d="M36.26 37.41C34.9291 38.6301 33.864 40.1113 33.1311 41.7613C32.3982 43.4113 32.0131 45.1946 32 47H12C11.9951 45.1981 11.6156 43.4169 10.8857 41.7694C10.1558 40.122 9.09136 38.6442 7.75996 37.43C-6.00004 24.76 2.62996 2.00001 20.87 1.00001C40.54 9.59635e-06 50.56 24.21 36.26 37.41Z" fill="url(#paint0_linear)"/>
<path d="M32.3699 44C32.1258 44.9814 32.0015 45.9887 31.9999 47H11.9999C12.001 45.9892 11.8801 44.9819 11.6399 44H32.3699Z" fill="#F6B756"/>
<path d="M8 18H11C13.9174 18 16.7153 19.1589 18.7782 21.2218C20.8411 23.2847 22 26.0826 22 29V30H19C16.0826 30 13.2847 28.8411 11.2218 26.7782C9.15892 24.7153 8 21.9174 8 19V18Z" fill="url(#paint1_linear)"/>
<path d="M25 33H22V32C22 29.0826 23.1589 26.2847 25.2218 24.2218C27.2847 22.1589 30.0826 21 33 21H36V22C36 24.9174 34.8411 27.7153 32.7782 29.7782C30.7153 31.8411 27.9174 33 25 33Z" fill="url(#paint2_linear)"/>
<path d="M22.0001 30H19.0001C16.0913 30 13.301 28.848 11.2395 26.7959C9.17804 24.7438 8.01328 21.9587 8.00006 19.05C8.00006 17.92 7.94006 18 8.00006 18C8.23676 20.746 9.50121 23.3014 11.5406 25.1554C13.58 27.0094 16.244 28.0253 19.0001 28H22.0001C22.0357 28.6662 22.0357 29.3338 22.0001 30Z" fill="#7ECE67"/>
<path d="M36 22.05C36 24.9674 34.8411 27.7653 32.7782 29.8282C30.7153 31.8911 27.9174 33.05 25 33.05H22C22 32.05 22 31.58 22 31.05H25C27.764 31.0743 30.4347 30.0515 32.4753 28.1871C34.516 26.3227 35.7752 23.7549 36 21C36.06 21 36 20.92 36 22.05Z" fill="#7ECE67"/>
<path d="M21 47V30C21 29.7348 21.1054 29.4804 21.2929 29.2929C21.4804 29.1054 21.7348 29 22 29C22.2652 29 22.5196 29.1054 22.7071 29.2929C22.8946 29.4804 23 29.7348 23 30V47C23 47.2652 22.8946 47.5196 22.7071 47.7071C22.5196 47.8946 22.2652 48 22 48C21.7348 48 21.4804 47.8946 21.2929 47.7071C21.1054 47.5196 21 47.2652 21 47Z" fill="url(#paint3_linear)"/>
<path d="M22 31C21.47 31 22 31.37 13.34 23.75C13.1542 23.5715 13.0444 23.3282 13.0336 23.0707C13.0228 22.8133 13.1118 22.5616 13.282 22.3682C13.4522 22.1747 13.6905 22.0545 13.9473 22.0325C14.204 22.0105 14.4593 22.0884 14.66 22.25L22.66 29.25C22.8122 29.3843 22.92 29.5617 22.969 29.7587C23.018 29.9557 23.0059 30.163 22.9342 30.3529C22.8626 30.5428 22.7348 30.7065 22.568 30.8221C22.4011 30.9377 22.203 30.9997 22 31Z" fill="url(#paint4_linear)"/>
<path d="M22 34C21.797 33.9997 21.5989 33.9377 21.4321 33.8221C21.2652 33.7065 21.1374 33.5428 21.0658 33.3529C20.9942 33.163 20.982 32.9557 21.031 32.7587C21.08 32.5617 21.1878 32.3843 21.34 32.25L29.34 25.25C29.5407 25.0884 29.796 25.0105 30.0527 25.0325C30.3095 25.0545 30.5478 25.1747 30.718 25.3682C30.8882 25.5616 30.9772 25.8133 30.9664 26.0707C30.9556 26.3282 30.8459 26.5715 30.66 26.75C22 34.34 22.53 34 22 34Z" fill="url(#paint5_linear)"/>
<path d="M12 47H32V55C32 56.0609 31.5786 57.0783 30.8284 57.8284C30.0783 58.5786 29.0609 59 28 59H16C14.9391 59 13.9217 58.5786 13.1716 57.8284C12.4214 57.0783 12 56.0609 12 55V47Z" fill="url(#paint6_linear)"/>
<path d="M22 63C21.2044 63 20.4413 62.6839 19.8787 62.1213C19.3161 61.5587 19 60.7956 19 60V59H25V60C25 60.7956 24.6839 61.5587 24.1213 62.1213C23.5587 62.6839 22.7956 63 22 63Z" fill="#8288A1"/>
<path d="M31.9999 53.0001L11.8999 51.0001C11.6346 50.9736 11.3908 50.8428 11.222 50.6365C11.0533 50.4302 10.9733 50.1653 10.9999 49.9001C11.0264 49.6349 11.1572 49.3911 11.3635 49.2223C11.5698 49.0535 11.8346 48.9736 12.0999 49.0001L32.0999 51.0001C32.2312 51.0067 32.3599 51.039 32.4787 51.0954C32.5976 51.1517 32.7041 51.2309 32.7923 51.3284C32.8805 51.4259 32.9487 51.5398 32.9929 51.6636C33.0371 51.7875 33.0564 51.9188 33.0499 52.0501C33.0433 52.1814 33.0109 52.3102 32.9546 52.429C32.8983 52.5478 32.8191 52.6544 32.7216 52.7426C32.6241 52.8308 32.5102 52.8989 32.3864 52.9431C32.2625 52.9873 32.1312 53.0067 31.9999 53.0001Z" fill="#8288A1"/>
<path d="M31.9999 57.0001L11.8999 55.0001C11.6346 54.9736 11.3908 54.8428 11.222 54.6365C11.0533 54.4302 10.9733 54.1653 10.9999 53.9001C11.0264 53.6349 11.1572 53.3911 11.3635 53.2223C11.5698 53.0535 11.8346 52.9736 12.0999 53.0001L32.0999 55.0001C32.2312 55.0067 32.3599 55.039 32.4787 55.0954C32.5976 55.1517 32.7041 55.2309 32.7923 55.3284C32.8805 55.4259 32.9487 55.5398 32.9929 55.6636C33.0371 55.7875 33.0564 55.9188 33.0499 56.0501C33.0433 56.1814 33.0109 56.3102 32.9546 56.429C32.8983 56.5478 32.8191 56.6544 32.7216 56.7426C32.6241 56.8308 32.5102 56.8989 32.3864 56.9431C32.2625 56.9873 32.1312 57.0067 31.9999 57.0001Z" fill="#8288A1"/>
<defs>
<linearGradient id="paint0_linear" x1="22" y1="47" x2="22" y2="1.00001" gradientUnits="userSpaceOnUse">
<stop stop-color="#FBCC88"/>
<stop offset="1" stop-color="#FFE5C3"/>
</linearGradient>
<linearGradient id="paint1_linear" x1="15" y1="30" x2="15" y2="18" gradientUnits="userSpaceOnUse">
<stop stop-color="#8CDD79"/>
<stop offset="1" stop-color="#D4E6B6"/>
</linearGradient>
<linearGradient id="paint2_linear" x1="568" y1="417" x2="568" y2="273" gradientUnits="userSpaceOnUse">
<stop stop-color="#8CDD79"/>
<stop offset="1" stop-color="#D4E6B6"/>
</linearGradient>
<linearGradient id="paint3_linear" x1="22" y1="47.99" x2="22" y2="29.01" gradientUnits="userSpaceOnUse">
<stop stop-color="#6AB891"/>
<stop offset="1" stop-color="#85CBA9"/>
</linearGradient>
<linearGradient id="paint4_linear" x1="242.147" y1="259.753" x2="341.905" y2="259.753" gradientUnits="userSpaceOnUse">
<stop stop-color="#6AB891"/>
<stop offset="1" stop-color="#85CBA9"/>
</linearGradient>
<linearGradient id="paint5_linear" x1="329.942" y1="289.657" x2="429.701" y2="289.657" gradientUnits="userSpaceOnUse">
<stop stop-color="#6AB891"/>
<stop offset="1" stop-color="#85CBA9"/>
</linearGradient>
<linearGradient id="paint6_linear" x1="22" y1="59" x2="22" y2="47" gradientUnits="userSpaceOnUse">
<stop stop-color="#949AAF"/>
<stop offset="1" stop-color="#C6CCDA"/>
</linearGradient>
</defs>
</svg>
