<svg width="40" height="40" viewBox="0 0 40 40" fill="none" xmlns="http://www.w3.org/2000/svg">
<path d="M22.9911 36.9894L21.009 38.9839C20.1697 39.8285 18.8125 39.8285 17.9822 38.9839L0.625039 21.5273C-0.214246 20.6828 -0.214246 19.3171 0.625039 18.4816L17.9822 1.01597C18.8215 0.171436 20.1786 0.171436 21.009 1.01597L22.9911 3.0105C23.8393 3.86401 23.8215 5.25659 22.9554 6.09214L12.1965 16.4062H37.8572C39.0447 16.4062 40 17.3675 40 18.5625V21.4375C40 22.6324 39.0447 23.5937 37.8572 23.5937H12.1965L22.9554 33.9078C23.8304 34.7433 23.8483 36.1359 22.9911 36.9894Z" fill="white"/>
</svg>
