<svg width="43" height="36" viewBox="0 0 43 36" fill="none" xmlns="http://www.w3.org/2000/svg">
<path d="M41.922 20.967L38.4264 10.1251C38.2845 9.66515 37.9978 9.26292 37.6086 8.97788C37.2194 8.69284 36.7485 8.54012 36.2655 8.54233H27.9396V0.945092C27.9396 0.861137 27.9061 0.780621 27.8465 0.721256C27.7869 0.661891 27.7061 0.62854 27.6218 0.62854H1.56363C1.47935 0.62854 1.39852 0.661891 1.33893 0.721256C1.27933 0.780621 1.24585 0.861137 1.24585 0.945092V30.7009C1.24585 30.7849 1.27933 30.8654 1.33893 30.9248C1.39852 30.9841 1.47935 31.0175 1.56363 31.0175H5.7107C5.77586 32.0627 6.23864 33.0439 7.00473 33.7611C7.77082 34.4783 8.7826 34.8776 9.83392 34.8776C10.8853 34.8776 11.897 34.4783 12.6631 33.7611C13.4292 33.0439 13.892 32.0627 13.9572 31.0175C31.9087 31.0175 29.6969 31.0175 29.8781 31.0175C29.9686 32.0425 30.4413 32.9966 31.2031 33.6916C31.9648 34.3866 32.9604 34.7721 33.9933 34.7721C35.0263 34.7721 36.0219 34.3866 36.7836 33.6916C37.5454 32.9966 38.0181 32.0425 38.1086 31.0175H41.6042C41.6885 31.0175 41.7693 30.9841 41.8289 30.9248C41.8885 30.8654 41.922 30.7849 41.922 30.7009C41.922 20.4668 41.922 21.0429 41.922 20.967ZM18.0883 1.26164V4.8545L17.2875 4.45565C17.081 4.35435 17.0206 4.45565 15.8702 5.01594C14.669 4.41766 14.6499 4.35752 14.4561 4.45565L13.3216 5.01594L12.1966 4.45565C12.0091 4.36068 11.9424 4.43665 11.1035 4.8545V1.26164H18.0883ZM1.88141 1.26164H10.4615V5.37681C10.4615 5.46077 10.495 5.54128 10.5546 5.60065C10.6142 5.66001 10.695 5.69336 10.7793 5.69336C10.8842 5.69336 10.8397 5.69336 12.0505 5.09825C13.2549 5.69653 13.2739 5.75667 13.4678 5.65854L14.5927 5.10458L15.7177 5.66487C15.9242 5.76617 15.9846 5.66487 17.1318 5.10458C18.3616 5.71552 18.3743 5.77567 18.5745 5.65221C18.7747 5.52876 18.7239 5.67121 18.7239 1.26164H27.304V24.0533H1.88141V1.26164ZM1.88141 24.6865H27.304V30.3844H13.9572C13.8666 29.3593 13.3939 28.4053 12.6321 27.7103C11.8704 27.0153 10.8749 26.6298 9.84187 26.6298C8.80888 26.6298 7.81337 27.0153 7.0516 27.7103C6.28984 28.4053 5.8171 29.3593 5.72658 30.3844H1.88141V24.6865ZM9.82598 34.183C9.13461 34.183 8.45877 33.9788 7.88392 33.5962C7.30907 33.2136 6.86103 32.6697 6.59646 32.0335C6.33188 31.3972 6.26266 30.6971 6.39754 30.0216C6.53242 29.3462 6.86534 28.7257 7.35421 28.2387C7.84308 27.7518 8.46594 27.4201 9.14402 27.2858C9.8221 27.1514 10.525 27.2204 11.1637 27.4839C11.8024 27.7475 12.3484 28.1938 12.7325 28.7664C13.1166 29.339 13.3216 30.0122 13.3216 30.7009C13.3216 31.6244 12.9533 32.5101 12.2977 33.1631C11.6422 33.8161 10.7531 34.183 9.82598 34.183ZM33.9775 34.183C33.2861 34.183 32.6102 33.9788 32.0354 33.5962C31.4605 33.2136 31.0125 32.6697 30.7479 32.0335C30.4834 31.3972 30.4141 30.6971 30.549 30.0216C30.6839 29.3462 31.0168 28.7257 31.5057 28.2387C31.9946 27.7518 32.6174 27.4201 33.2955 27.2858C33.9736 27.1514 34.6764 27.2204 35.3152 27.4839C35.9539 27.7475 36.4998 28.1938 36.8839 28.7664C37.268 29.339 37.4731 30.0122 37.4731 30.7009C37.4731 31.6244 37.1048 32.5101 36.4492 33.1631C35.7937 33.8161 34.9045 34.183 33.9775 34.183ZM38.1086 30.3844C38.0181 29.3593 37.5454 28.4053 36.7836 27.7103C36.0219 27.0153 35.0263 26.6298 33.9933 26.6298C32.9604 26.6298 31.9648 27.0153 31.2031 27.7103C30.4413 28.4053 29.9686 29.3593 29.8781 30.3844C29.7827 30.3844 30.2435 30.3844 27.9714 30.3844V9.17543H36.3068C36.6528 9.17304 36.9904 9.2812 37.2701 9.48403C37.5497 9.68686 37.7568 9.97367 37.8608 10.3024L38.0769 11.0747H31.1174C31.0331 11.0747 30.9523 11.1081 30.8927 11.1675C30.8331 11.2268 30.7996 11.3073 30.7996 11.3913V20.8878C30.7996 20.9718 30.8331 21.0523 30.8927 21.1117C30.9523 21.171 31.0331 21.2044 31.1174 21.2044H41.2865V23.7368H40.3331C40.0803 23.7368 39.8378 23.8369 39.659 24.0149C39.4802 24.193 39.3798 24.4346 39.3798 24.6865V27.2189C39.3798 27.4707 39.4802 27.7123 39.659 27.8904C39.8378 28.0685 40.0803 28.1685 40.3331 28.1685H41.2865V30.3844H38.1086ZM40.8702 20.5713H31.4352V11.7078H38.0419L40.8702 20.5713ZM41.2865 27.5354H40.3331C40.2488 27.5354 40.168 27.5021 40.1084 27.4427C40.0488 27.3833 40.0153 27.3028 40.0153 27.2189V24.6865C40.0153 24.6025 40.0488 24.522 40.1084 24.4626C40.168 24.4033 40.2488 24.3699 40.3331 24.3699H41.2865V27.5354Z" fill="white" stroke="white" stroke-width="0.5"/>
<path d="M32.7063 23.1036H31.1174C31.0331 23.1036 30.9523 23.137 30.8927 23.1964C30.8331 23.2557 30.7996 23.3362 30.7996 23.4202C30.7996 23.5041 30.8331 23.5847 30.8927 23.644C30.9523 23.7034 31.0331 23.7367 31.1174 23.7367H32.7063C32.7906 23.7367 32.8714 23.7034 32.931 23.644C32.9906 23.5847 33.0241 23.5041 33.0241 23.4202C33.0241 23.3362 32.9906 23.2557 32.931 23.1964C32.8714 23.137 32.7906 23.1036 32.7063 23.1036Z" fill="white" stroke="white" stroke-width="1.4"/>
<path d="M33.9774 28.485C33.5375 28.485 33.1074 28.6149 32.7416 28.8584C32.3758 29.1019 32.0907 29.448 31.9223 29.8529C31.7539 30.2578 31.7099 30.7033 31.7957 31.1331C31.8815 31.563 32.0934 31.9578 32.4045 32.2677C32.7156 32.5776 33.112 32.7886 33.5435 32.8741C33.975 32.9596 34.4222 32.9158 34.8287 32.748C35.2352 32.5803 35.5826 32.2963 35.827 31.9319C36.0715 31.5675 36.2019 31.1391 36.2019 30.7008C36.2019 30.4099 36.1444 30.1217 36.0326 29.8529C35.9208 29.584 35.7569 29.3398 35.5504 29.134C35.3438 28.9282 35.0986 28.765 34.8287 28.6537C34.5588 28.5423 34.2696 28.485 33.9774 28.485ZM33.9774 32.2836C33.6632 32.2836 33.356 32.1908 33.0947 32.0169C32.8334 31.8429 32.6297 31.5958 32.5095 31.3065C32.3892 31.0173 32.3577 30.6991 32.4191 30.3921C32.4804 30.085 32.6317 29.803 32.8539 29.5817C33.0761 29.3603 33.3592 29.2096 33.6675 29.1485C33.9757 29.0874 34.2952 29.1188 34.5855 29.2386C34.8758 29.3584 35.124 29.5612 35.2986 29.8215C35.4732 30.0818 35.5664 30.3878 35.5664 30.7008C35.5664 31.1206 35.3989 31.5232 35.101 31.82C34.803 32.1169 34.3988 32.2836 33.9774 32.2836Z" fill="white"/>
<path d="M9.82598 28.485C9.38602 28.485 8.95594 28.6149 8.59013 28.8584C8.22431 29.1019 7.9392 29.448 7.77083 29.8529C7.60247 30.2578 7.55841 30.7033 7.64425 31.1331C7.73008 31.563 7.94194 31.9578 8.25304 32.2677C8.56414 32.5776 8.9605 32.7886 9.39201 32.8741C9.82351 32.9596 10.2708 32.9158 10.6773 32.748C11.0837 32.5803 11.4311 32.2963 11.6756 31.9319C11.92 31.5675 12.0505 31.1391 12.0505 30.7008C12.0505 30.4099 11.9929 30.1217 11.8811 29.8529C11.7693 29.584 11.6055 29.3398 11.3989 29.134C11.1924 28.9282 10.9471 28.765 10.6773 28.6537C10.4074 28.5423 10.1181 28.485 9.82598 28.485ZM9.82598 32.2836C9.51172 32.2836 9.20452 32.1908 8.94323 32.0169C8.68193 31.8429 8.47828 31.5958 8.35802 31.3065C8.23776 31.0173 8.20629 30.6991 8.2676 30.3921C8.32891 30.085 8.48024 29.803 8.70245 29.5817C8.92466 29.3603 9.20778 29.2096 9.516 29.1485C9.82422 29.0874 10.1437 29.1188 10.434 29.2386C10.7244 29.3584 10.9725 29.5612 11.1471 29.8215C11.3217 30.0818 11.4149 30.3878 11.4149 30.7008C11.4149 31.1206 11.2475 31.5232 10.9495 31.82C10.6515 32.1169 10.2474 32.2836 9.82598 32.2836Z" fill="white"/>
</svg>
